<?xml version="1.0" encoding="UTF-8"?>
<svg id="Layer_2" data-name="Layer 2" xmlns="http://www.w3.org/2000/svg" viewBox="0 0 365.47 255.34">
  <defs>
    <style>
      .cls-1 {
        fill: #0071bc;
      }

      .cls-2 {
        fill: #e7272b;
      }

      .cls-3 {
        fill: #f2f2f2;
      }

      .cls-4 {
        fill: #fbb03b;
      }
    </style>
  </defs>
  <g id="Layer_1-2" data-name="Layer 1">
    <g>
      <path class="cls-1" d="M194.18,17.44c-.16-4.99-2.47-10.55,0-15.99-.59-.79-16.91-.21-19.5,0C114.62,6.24,55.28,45.58,25.98,97.74,9.86,126.44.36,160.35,1.17,193.45c5.66.02,11.35-.04,17.01,0,10.65.07,21.35.03,32,0-2.33-78.22,66.03-145.55,144-144-.04-10.63.33-21.38,0-32Z"/>
      <path class="cls-4" d="M194.16,45.67c.05,13.5,1.6,33.03.05,45.72-.13,1.09.03,2.39-1.01,3.1-.94.64-18.55,2.28-22.47,3.19-38.75,9.04-70.81,44.23-75.08,83.98-.29,2.72.87,10.05-.98,11.34-16.07.86-32.22.4-48.3.45-2.39-80.27,67.76-149.36,147.77-147.77Z"/>
      <path class="cls-2" d="M157.53,189.09c-5.25-4.76-17.77-17.29-21.88-22.62-10.65-13.83,3.49-33.12,19.72-26.72,2.55,1.01,4.43,3.8,7.3,3.79s7.89-4.86,13.03-5.14c6.68-.36,15.83,4.9,17.24,11.77,1.8,8.79-.4,13.44-5.74,19.8-2.15,2.56-20.64,21.32-22.05,21.98-2.96,1.38-5.52-.95-7.62-2.86Z"/>
      <path class="cls-3" d="M250.18,1.44c3.2.6,13-1.89,13,2.5v31.5h8V2.94c0-2.45,10.75-1.25,13-1.5v83c-3.2-.6-13,1.89-13-2.5v-33.5h-8v34.5c0,2.45-10.75,1.25-13,1.5V1.44Z"/>
      <path class="cls-3" d="M360.17,193.44h-13c-.16-2.49-1-15.15-2.14-15.85-.46-.29-10.47-.52-10.85-.13-.55.58-.98,14.92-2.12,15.88-.88.75-9.74-.31-11.9.11l12.11-81.89c3.16.38,14.66-1.63,15.73,1.56l12.16,80.33ZM340.16,139.44c-1.35-1.49-1.83.08-1.99,1.48-.91,7.77-1.69,15.71-2,23.52,2.13-.17,7.12.95,7.93-1.65.25-.81-1.6-14.86-2-16.78-.18-.87-1.71-6.32-1.94-6.58Z"/>
      <path class="cls-3" d="M352.22,24.42c.01-2.77-2.65-17.54-7.55-10.98-6.4,8.57,9.23,25.38,13.31,32.7,4.63,8.29,7.43,14.83,6.11,24.72-2.66,19.99-30.91,20.96-34.47.64-1.69-9.64-.81-13.11,10.06-11.05,4.35.82,1.54,12.18,5.16,13.06,7.93,1.91,7.19-8.87,5.57-13.79-5.05-15.42-28.07-30.32-17.44-50.97,7.12-13.82,27.68-10.74,30.75,5.65,2.26,12.07-2.27,8.01-11.5,10.03Z"/>
      <path class="cls-3" d="M261.17,133.45c2.75-14.14-10.87-14.94-7.56-.93,3.17,13.45,21.41,25.34,20.49,43.27-1.51,29.4-40.65,22.19-34.93-6.35,2.23.95,11.09-1.83,11.98-.97,1.17,1.12-.42,13.46,5.5,13.93,5.3.42,5.02-7.73,4.3-11.23-3.25-15.75-26.76-28.76-19.01-50.46,5.23-14.63,26.28-14.62,30.78,1.69,3.44,12.47-.65,9.92-11.55,11.05Z"/>
      <path class="cls-3" d="M237.18,1.44c.24,11.31,2.13,14.46-11.01,12.99l-.16,68.34c-.39,3.41-12.84,2.35-12.84,1.66V14.44c-13.44,1.19-12.56-.52-12-13h36Z"/>
      <path class="cls-3" d="M314.18,1.44v82.5c0,2.38-10.51-.43-13,.5V1.44h13Z"/>
      <path class="cls-3" d="M225.18,111.44v80.5c0,2.45-10.75,1.25-13,1.5v-81.5c0-2.51,10.91-1.55,13-.5Z"/>
      <path class="cls-3" d="M25.17,226.44c-.85.9-17.43-8.2-16.07,1.5.46,3.26,10.15,3.2,13.35,4.73,11.77,5.65,5.27,22.45-8.88,22.67-8.57.13-16.67-3.09-12.39-12.89,4.41,1.58,6.17,5.08,11.49,5.09,4.98.01,10.87-4.77,5.46-7.56-5.88-3.03-18.38-.28-17.9-12.95.52-13.81,27.91-16.41,24.94-.59Z"/>
      <path class="cls-3" d="M207,218.61c.77,1.27.43,7.48-1.35,7.83-1.42.28-15.9-8.12-14.54,1.5.46,3.26,10.15,3.2,13.35,4.73,11.81,5.66,5.23,22.44-8.88,22.67-1.71.03-11.74-2.23-12.25-3.03-.88-1.37.32-7.65-.14-9.85,2.66-.11,3.47,2.67,5.72,3.77,3.67,1.78,13.29,1.89,13.31-3.27.02-5.9-16.71-1.95-18.82-11.22s2.79-15.88,12.37-16.19c1.77-.06,10.58,1.99,11.23,3.07Z"/>
      <path class="cls-3" d="M290.18,254.44c-11.37,2.01-7.42-3.34-10.49-7.01-1.76-2.11-8.93-.47-11.91-1.05-2.56,7.59-1.47,9.17-10.61,8.06l12.12-37.87c2.85-.08,6.98-1.17,8.8,1.46l12.09,36.41ZM277.18,239.44c-1.52-13.87-6.41-14.89-7.01,0h7.01Z"/>
      <path class="cls-3" d="M59.03,216.58c1.63,1.04,10.49,32.16,13.14,36.33-9.93,6.8-9.39-4.85-11.11-6.35-.57-.5-11.25-.53-12.41.87s-.92,5.55-2.44,6.55c-2.01,1.33-8.39,1.4-7.64-2.57,1.97-10.5,9.88-23.07,12.09-33.99,1.16-1.35,7.38-1.48,8.37-.84ZM58.18,239.44c.93-1.72-2.54-13.13-3.99-12l-3.01,11.99h7.01Z"/>
      <path class="cls-3" d="M141.18,216.44v8.01s-12.01-.01-12.01-.01v6.01c6.76-.05,11.32-1.82,10.01,7-1.71.29-9.59-.42-9.99,0-.28.29-.79,6.97-.59,8.04,1.5,2.04,10.69.47,13.59.95.1,1.61.41,8-1.5,8h-19c-.11,0-1.5-1.39-1.5-1.5v-35c0-.11,1.39-1.5,1.5-1.5h19.5Z"/>
      <path class="cls-3" d="M329.17,225.44c-8.96-2-20.41-4.26-21.07,8.47-.79,15.16,11.32,13.62,22.07,10.53,1.83,11.81-15.17,12.75-22.51,8.01-11.53-7.46-11.35-28.68,1.5-34.52,7.31-3.33,22.99-4.9,20.01,7.51Z"/>
      <path class="cls-3" d="M365.18,216.44c1.83,11.13-5.05,7.56-13.01,7.99v6.01s10.01-.01,10.01-.01v6.43s-10.01.57-10.01.57v9.01s13.01,0,13.01,0c.1,1.61.41,8-1.5,8h-19.5v-38h21Z"/>
      <path class="cls-3" d="M233.42,244.68c-2.06,1.73-.32,8.02-2.17,9.33-2.06,1.45-6.52.92-7.07-2.06-1.73-9.36,1.18-23.91.13-33.87,4.12-3.87,15.63-2.49,19.83.91,5.33,4.31,5.82,16.18,1.04,20.95-3.78,3.78-10,3.27-11.76,4.74ZM232.18,237.45c11.43,2.41,11.81-14.39,2.29-14.85-4.13-.2-1.64,12.01-2.29,14.85Z"/>
      <path class="cls-3" d="M106.18,216.44c1.83,11.13-5.05,7.56-13.01,7.99v6.01s11.01-.01,11.01-.01v8.01s-11.01,0-11.01,0v14.5c0,2.08-7.33,1.5-9,1.5v-38h22Z"/>
    </g>
  </g>
</svg>