<?xml version="1.0" encoding="UTF-8" standalone="no"?><!DOCTYPE svg PUBLIC "-//W3C//DTD SVG 1.1//EN" "http://www.w3.org/Graphics/SVG/1.1/DTD/svg11.dtd"><svg width="100%" height="100%" viewBox="0 0 271 175" version="1.1" xmlns="http://www.w3.org/2000/svg" xmlns:xlink="http://www.w3.org/1999/xlink" xml:space="preserve" xmlns:serif="http://www.serif.com/" style="fill-rule:evenodd;clip-rule:evenodd;stroke-linejoin:round;stroke-miterlimit:2;"><rect id="logo-black" serif:id="logo black" x="0" y="0" width="270.833" height="175" style="fill:none;"/><path d="M135.421,173.294l-46.887,0l0,-36.4c0,-21.3 10.879,-41.121 28.867,-52.533c16.259,-10.312 36.266,-12.457 54.194,-6.069c1.906,0.679 3.788,1.455 5.64,2.327l20.704,9.754c4.746,2.237 10.304,1.888 14.733,-0.921c4.429,-2.808 7.113,-7.692 7.113,-12.938l0,-25.333l46.887,0l0,25.333c0,21.3 -10.9,41.121 -28.887,52.533c-17.988,11.408 -40.562,12.821 -59.833,3.742l-20.704,-9.754c-4.746,-2.237 -10.304,-1.888 -14.733,0.921c-4.429,2.808 -7.092,7.692 -7.092,12.938l0,36.4Z" style="fill:#1f1f1f;"/><path d="M51.05,127.022l-46.888,0l0,-19.862c0,-21.3 10.9,-41.121 28.888,-52.533c17.987,-11.408 40.563,-12.821 59.833,-3.742l20.704,9.754c4.746,2.238 10.304,1.887 14.733,-0.921c4.429,-2.808 7.092,-7.692 7.092,-12.938l0,-45.075l46.888,0l0,45.075c0,12.646 -3.835,24.77 -10.715,34.923c-4.709,6.948 -10.844,12.973 -18.152,17.61c-17.987,11.408 -40.562,12.821 -59.833,3.742l-20.704,-9.754c-4.746,-2.237 -10.304,-1.888 -14.733,0.921c-4.429,2.808 -7.113,7.692 -7.113,12.938l0,19.862Z"/><path d="M51.05,127.026l-46.888,0l-0,-19.862c0,-21.3 10.9,-41.121 28.888,-52.533c17.987,-11.408 40.562,-12.821 59.833,-3.742l20.704,9.754c4.746,2.238 10.304,1.887 14.733,-0.921c4.429,-2.808 7.092,-7.692 7.092,-12.938l0,-45.075l46.888,-0l0,45.075c0,12.646 -3.835,24.77 -10.715,34.923c-4.709,6.948 -10.844,12.973 -18.152,17.61c-17.987,11.408 -40.562,12.821 -59.833,3.742l-20.704,-9.754c-4.746,-2.237 -10.304,-1.888 -14.733,0.921c-4.429,2.808 -7.113,7.692 -7.113,12.938l0,19.862Z" style="fill:#1f1f1f;"/></svg>