<?xml version="1.0" encoding="UTF-8" standalone="no"?><!DOCTYPE svg PUBLIC "-//W3C//DTD SVG 1.1//EN" "http://www.w3.org/Graphics/SVG/1.1/DTD/svg11.dtd"><svg width="100%" height="100%" viewBox="0 0 64 41" version="1.1" xmlns="http://www.w3.org/2000/svg" xmlns:xlink="http://www.w3.org/1999/xlink" xml:space="preserve" xmlns:serif="http://www.serif.com/" style="fill-rule:evenodd;clip-rule:evenodd;stroke-linejoin:round;stroke-miterlimit:2;"><path d="M31.67,40.119l-11.253,0l0,-8.736c-0,-5.112 2.616,-9.869 6.933,-12.608c4.317,-2.738 9.735,-3.077 14.36,-0.898l4.969,2.341c1.139,0.537 2.473,0.453 3.536,-0.221c1.063,-0.674 1.707,-1.846 1.707,-3.105l-0,-6.08l11.253,0l-0,6.08c0,5.112 -2.616,9.869 -6.933,12.608c-4.317,2.738 -9.735,3.077 -14.36,0.898l-4.969,-2.341c-1.139,-0.537 -2.473,-0.453 -3.536,0.221c-1.063,0.674 -1.707,1.846 -1.707,3.105l0,8.736Z"/><path d="M11.253,30.076l-11.253,-0l0,-4.767c-0,-5.112 2.616,-9.869 6.933,-12.608c4.317,-2.738 9.735,-3.077 14.36,-0.898l4.969,2.341c1.139,0.537 2.473,0.453 3.536,-0.221c1.063,-0.674 1.707,-1.846 1.707,-3.105l-0,-10.818l11.253,0l-0,10.818c0,5.112 -2.616,9.869 -6.933,12.608c-4.317,2.738 -9.735,3.077 -14.36,0.898l-4.969,-2.341c-1.139,-0.537 -2.473,-0.453 -3.536,0.221c-1.063,0.674 -1.707,1.846 -1.707,3.105l0,4.767Z"/></svg>