<svg xmlns="http://www.w3.org/2000/svg" viewBox="0 0 128 128">
  <rect width="128" height="128" rx="24" fill="#111111"/>
  <g transform="translate(18 18) scale(3.1)">
    <path fill="#ffffff" d="M25.9769 13.7767L25.9543 13.5304C25.7409 11.1662 24.2023 6.71817 19.9346 6.71817C16.7676 6.71817 14.3752 9.8442 12.2639 12.6002C10.5791 14.8074 9.11944 16.7007 7.51325 16.7007C7.08635 16.6561 6.53615 16.4431 6.19939 15.9614C5.89612 15.5242 5.81756 14.9641 5.97467 14.2919C6.22161 13.2275 7.63688 12.2415 9.13039 11.1883C9.95006 10.6282 10.7926 10.0343 11.3766 9.46296C13.0613 7.83844 13.9148 6.66196 13.9148 4.76861C13.9148 2.87526 12.8704 1.93389 11.9944 1.53049C10.2424 0.724006 7.67069 1.19453 6.03101 2.60643C5.78408 2.83062 5.53683 3.04324 5.31211 3.24494C3.66117 4.71273 2.54949 5.70999 0 4.94783V8.01766C3.38043 9.50793 6.22193 6.66196 7.30013 5.35123C8.13107 4.48854 9.00708 3.98429 9.6587 3.98429H9.69251C9.98451 3.99553 10.2314 4.10762 10.4114 4.30932C10.7034 4.6456 10.8158 5.03776 10.7594 5.47456C10.6358 6.39345 9.68124 7.46876 7.92921 8.64524C5.8739 10.0234 2.43745 12.3314 2.16766 15.2333C1.96548 17.3174 3.04368 19.4012 4.72842 20.2077C8.65906 22.0676 11.0514 18.8632 13.5893 15.4796C15.5323 12.8691 17.3741 10.3931 19.9349 10.3931C22.2371 10.3931 23.0906 12.2977 23.0906 13.4966V13.7321L22.8659 13.7767C17.2843 14.7627 14.2406 19.9838 14.2406 22.3927C14.2406 24.8015 16.2847 26.8631 18.8004 26.8631C21.7429 26.8631 25.3816 24.3535 25.9656 17.2949L25.9881 17.0373H28.3129V13.777H25.9769V13.7767ZM22.9332 17.3954C22.4841 21.6193 20.3164 23.5913 19.0025 23.5913C18.4073 23.5913 17.5763 23.0983 17.5763 22.1797C17.5763 21.149 19.1149 18.023 22.5739 17.0932L22.9783 16.9924L22.9332 17.3958V17.3954Z"/>
  </g>
</svg>
